# xmcd
#
# Track frame offsets: 
#        150
#        9153
#        26219
#        43764
#        56712
#        71143
#        83912
#        95718
#        114260
#        133563
#        150832
#        169362
#
# Disc length: 2500 seconds
#
# Revision: 6
# Processed by: cddbd v1.5.2PL0 Copyright (c) Steve Scherf et al.
# Submitted via: ExactAudioCopy v0.99pb5
#
DISCID=9909c20c
DTITLE=Cat Power - Jukebox Deluxe [CD1]
DYEAR=2008
DGENRE=Indie
TTITLE0=New York
TTITLE1=Ramblin' (Wo)Man
TTITLE2=Metal Heart
TTITLE3=Silver Stallion
TTITLE4=Aretha, Sing One for Me
TTITLE5=Lost Someone
TTITLE6=Lord, Help the Poor and Needy
TTITLE7=I Believe in You
TTITLE8=Song to Bobby
TTITLE9=Don't Explain
TTITLE10=Woman Left Lonely
TTITLE11=Blue
EXTD=YEAR: 2008 ID3G: 80
EXTT0=
EXTT1=
EXTT2=
EXTT3=
EXTT4=
EXTT5=
EXTT6=
EXTT7=
EXTT8=
EXTT9=
EXTT10=
EXTT11=
PLAYORDER=
